<svg width="95" height="24" viewBox="0 0 95 24" fill="none" xmlns="http://www.w3.org/2000/svg">
<path d="M7.91667 4.5H5.41667C4.95643 4.5 4.58333 4.8731 4.58333 5.33333V7.83333H7.91667C8.01145 7.83123 8.10134 7.87533 8.15769 7.95156C8.21404 8.0278 8.22982 8.12667 8.2 8.21667L7.58333 10.05C7.52651 10.2183 7.36926 10.332 7.19167 10.3333H4.58333V16.5833C4.58333 16.8135 4.39679 17 4.16667 17H2.08333C1.85321 17 1.66667 16.8135 1.66667 16.5833V10.3333H0.416667C0.186548 10.3333 0 10.1468 0 9.91667V8.25C0 8.01988 0.186548 7.83333 0.416667 7.83333H1.66667V5.33333C1.66667 3.49238 3.15905 2 5 2H7.91667C8.14678 2 8.33333 2.18655 8.33333 2.41667V4.08333C8.33333 4.31345 8.14678 4.5 7.91667 4.5Z" fill="#222222"/>
<path d="M47.3769 9.69418C47.3743 13.0018 45.2565 15.9371 42.1184 16.9823C42.0009 17.0185 41.8733 16.9986 41.7724 16.9285C41.6715 16.8551 41.6116 16.738 41.611 16.6132V14.5606C41.6276 14.0077 41.4948 13.4606 41.2266 12.9769C41.186 12.9136 41.186 12.8326 41.2266 12.7693C41.2577 12.711 41.3149 12.671 41.3803 12.6617C43.2562 12.4695 44.3017 11.7238 44.3017 9.69418C44.3469 8.74653 44.0184 7.819 43.3869 7.11105C43.479 6.812 43.5281 6.50139 43.5329 6.18851C43.5296 5.90799 43.4909 5.62902 43.4176 5.35822C43.3693 5.17765 43.1958 5.05984 43.0101 5.08146C42.3058 5.18144 41.6501 5.49854 41.1343 5.98863C40.1796 5.80416 39.1984 5.80416 38.2437 5.98863C37.7279 5.49854 37.0722 5.18144 36.3678 5.08146C36.1822 5.05984 36.0087 5.17765 35.9604 5.35822C35.8871 5.62902 35.8484 5.90799 35.8451 6.18851C35.8498 6.50139 35.899 6.812 35.9911 7.11105C35.3596 7.819 35.0311 8.74653 35.0763 9.69418C35.0763 11.8314 36.2371 12.5464 38.3667 12.7232C38.1023 13.0696 37.9209 13.472 37.8362 13.8994C37.8362 13.8994 37.8362 13.9532 37.8362 13.9917C37.8325 14.0275 37.8325 14.0635 37.8362 14.0993C37.8042 14.341 37.5869 14.5142 37.3442 14.4914C37.2285 14.486 37.1155 14.4544 37.0136 14.3991C36.5948 14.1441 36.2251 13.816 35.9219 13.4305C35.7288 13.2115 35.5235 13.0036 35.3069 12.8078C35.1693 12.6886 35.0168 12.5879 34.8533 12.5079C34.7387 12.4436 34.5989 12.4436 34.4843 12.5079C34.3743 12.5785 34.3077 12.7001 34.3075 12.8308V12.8769C34.3077 13.0076 34.3743 13.1293 34.4843 13.1998C34.7603 13.4308 34.9989 13.7031 35.1916 14.0071C35.5171 14.5171 35.931 14.9649 36.414 15.3294C36.7321 15.5427 37.1072 15.6552 37.4903 15.6523H37.767V16.6132C37.7664 16.738 37.7065 16.8551 37.6056 16.9285C37.5047 16.9986 37.3771 17.0185 37.2596 16.9823C33.5326 15.7409 31.3409 11.8894 32.1775 8.05121C33.014 4.21298 36.6096 1.62283 40.5152 2.045C44.4208 2.46717 47.3798 5.76584 47.3769 9.69418Z" fill="#222222"/>
<path d="M89.6213 4.17393C89.1659 4.78129 88.6155 5.3111 87.9913 5.7429C87.9913 5.90156 87.9913 6.06022 87.9913 6.22769C87.9964 9.10894 86.8455 11.8717 84.7967 13.8966C82.7479 15.9215 79.9726 17.0391 77.093 16.999C75.4283 17.0045 73.7848 16.6244 72.2914 15.8883C72.2109 15.8532 72.159 15.7735 72.1593 15.6856V15.5886C72.1593 15.4621 72.2618 15.3595 72.3884 15.3595C74.0248 15.3055 75.6028 14.7382 76.8992 13.7376C75.418 13.7078 74.0853 12.8303 73.472 11.4811C73.441 11.4074 73.4507 11.3229 73.4975 11.2581C73.5443 11.1933 73.6214 11.1575 73.7011 11.1638C74.1513 11.209 74.6059 11.1671 75.0402 11.0404C73.4051 10.701 72.1765 9.34352 72.0007 7.68208C71.9945 7.60238 72.0302 7.52518 72.095 7.47837C72.1597 7.43156 72.2442 7.42191 72.3179 7.4529C72.7567 7.64652 73.2303 7.7485 73.7099 7.75259C72.2772 6.81221 71.6583 5.02358 72.2033 3.39825C72.2596 3.24032 72.3948 3.12365 72.5592 3.09111C72.7236 3.05858 72.893 3.11498 73.0051 3.23959C74.9385 5.29731 77.595 6.52349 80.4145 6.6596C80.3423 6.37142 80.3068 6.07525 80.3088 5.77816C80.3352 4.22032 81.2991 2.83256 82.7492 2.26458C84.1994 1.69661 85.8488 2.06082 86.9253 3.18671C87.6591 3.04692 88.3685 2.80044 89.031 2.45511C89.0795 2.42481 89.141 2.42481 89.1895 2.45511C89.2198 2.50366 89.2198 2.56522 89.1895 2.61377C88.8687 3.34854 88.3266 3.96482 87.6389 4.37666C88.2411 4.30683 88.8327 4.16477 89.401 3.95357C89.4488 3.921 89.5117 3.921 89.5596 3.95357C89.5997 3.9719 89.6296 4.00697 89.6415 4.04943C89.6534 4.09189 89.646 4.13743 89.6213 4.17393Z" fill="#222222"/>
</svg>
