<svg width="14" height="12" viewBox="0 0 14 12" fill="none" xmlns="http://www.w3.org/2000/svg">
<path d="M13.9659 2.14924C13.6244 2.60751 13.2116 3.00725 12.7435 3.33304C12.7435 3.45275 12.7435 3.57246 12.7435 3.69882C12.7473 5.87275 11.8841 7.95725 10.3475 9.48504C8.81094 11.0128 6.72949 11.8561 4.56978 11.8258C3.32121 11.83 2.08862 11.5432 0.968582 10.9878C0.908189 10.9613 0.869237 10.9012 0.869466 10.8349V10.7617C0.869466 10.6662 0.946384 10.5888 1.04127 10.5888C2.26858 10.5481 3.45212 10.12 4.42441 9.3651C3.31352 9.3426 2.314 8.68055 1.85401 7.66256C1.83078 7.60696 1.83801 7.54318 1.8731 7.49428C1.90819 7.44538 1.96607 7.41842 2.02581 7.42314C2.36344 7.45728 2.70444 7.42567 3.03019 7.33003C1.80385 7.07394 0.882402 6.04973 0.750528 4.79617C0.745841 4.73603 0.772629 4.67778 0.821214 4.64247C0.8698 4.60715 0.93316 4.59987 0.988405 4.62325C1.3175 4.76934 1.67276 4.84628 2.03242 4.84937C0.957864 4.13985 0.493727 2.79031 0.902505 1.56399C0.9447 1.44483 1.04607 1.3568 1.16938 1.33225C1.29268 1.30771 1.41971 1.35026 1.50381 1.44428C2.95385 2.99684 4.94625 3.922 7.06089 4.0247C7.00672 3.80726 6.98008 3.58381 6.98159 3.35965C7.00137 2.18424 7.72429 1.13717 8.81192 0.708632C9.89954 0.28009 11.1366 0.55489 11.944 1.40438C12.4943 1.29891 13.0264 1.11294 13.5232 0.852385C13.5596 0.829526 13.6058 0.829526 13.6422 0.852385C13.6649 0.889014 13.6649 0.935465 13.6422 0.972095C13.4015 1.52649 12.995 1.99147 12.4792 2.30221C12.9308 2.24952 13.3745 2.14234 13.8007 1.98298C13.8366 1.95841 13.8838 1.95841 13.9197 1.98298C13.9497 1.99682 13.9722 2.02328 13.9811 2.05531C13.99 2.08735 13.9845 2.12171 13.9659 2.14924Z" fill="#555555"/>
</svg>
